<?xml version="1.0" encoding="utf-8"?>
<!-- Generator: Adobe Illustrator 28.2.0, SVG Export Plug-In . SVG Version: 6.00 Build 0)  -->
<svg version="1.1" id="Camada_2_00000126285662027951979340000016415879748857997247_"
	 xmlns="http://www.w3.org/2000/svg" xmlns:xlink="http://www.w3.org/1999/xlink" x="0px" y="0px" viewBox="0 0 146.8 101.1"
	 style="enable-background:new 0 0 146.8 101.1;" xml:space="preserve">
<style type="text/css">
	.st0{fill:#FFFFFF;}
	.st1{enable-background:new    ;}
</style>
<path class="st0" d="M32.9,20.6L27,14.7h-9.9v-3.3H6.8v10.2h10.2v-3.9h8.6l6.3,6l20,0v-3.1H32.9z M14.5,18.9h-5v-5h5V18.9z"/>
<path class="st0" d="M14.9,27.8V38h10.1V27.8H14.9z M22.5,35.1h-5.1v-4.5h5.1V35.1z"/>
<path class="st0" d="M23,41.7l-3,4.9l-8.9,0.1v-4H0v11.1h11.1v-3.1H22l4.1-5.9H80v-3C80,41.7,23,41.7,23,41.7z M8.1,50.8H2.8v-5.4
	h5.4C8.1,45.4,8.1,50.8,8.1,50.8z"/>
<path class="st0" d="M36.8,53l-7.4,8.7h-3.9v-4H14.5v11.1h11.1v-4.1h4.7l7.6-8.9h32.7V53C70.6,53,36.8,53,36.8,53z M22.5,65.7h-5v-5
	h5V65.7z"/>
<rect x="25.1" y="31" class="st0" width="44.8" height="3.8"/>
<g class="st1">
	<path class="st0" d="M116,0l30.8,83.5h-38.3l6.7-17.6h8.1L116,44l-22,57.2H76.9L106,25L116,0z"/>
</g>
<path class="st0" d="M99.3,33.7C97.7,20.9,89,9.3,76.1,5.8c-11.1-3-25.3-2-38.7-2v16.9l8.7-0.1c0-8.5,0-9,0-9s14.4-0.1,18.4,0.1
	c15.3,0.7,26.2,11.2,26.7,25.6c0.6,16-9,27.6-24.5,29.2c-4.6,0.5-21.2,0.2-21.2,0.2l0-11h-7.9v18.5c10.9,0,21.3,0.9,31.5-0.2
	c6.8-0.8,12.7-3.2,17.5-6.9C86.5,67.1,99.3,33.7,99.3,33.7z"/>
</svg>
